<svg width="184" height="33" viewBox="0 0 184 33" fill="none" xmlns="http://www.w3.org/2000/svg">
<path d="M32.9963 9.64946L32.3329 8.50001L27.7132 0.5L9.23936 0.5L4.61968 8.50001L3.95626 9.64946L1.31956 14.2157L0 16.5C3.07898 21.8342 6.15796 27.1659 9.23694 32.5H11.8931L17.1665 23.3676H22.4398L26.4034 16.5L22.4496 9.64946L7.75953 9.64946L5.12284 14.2157C7.77898 14.2157 17.1543 14.1987 19.8032 14.1987L19.8129 14.2157L21.13 16.5L19.8032 18.8013L14.4909 18.8013C13.1762 21.0784 11.8615 23.3554 10.5443 25.6324L5.27096 16.5L6.59052 14.2157L9.22721 9.64946L11.8736 5.06623L25.0765 5.06623L27.723 9.64946L30.3596 14.2157L31.6768 16.5C29.4775 20.3105 27.2758 24.1233 25.0765 27.9338H19.842L17.2053 32.5H27.7132C30.7922 27.1659 33.8712 21.8342 36.9502 16.5L35.633 14.2157L32.9963 9.64946Z" fill="#5200FF"/>
<path fill-rule="evenodd" clip-rule="evenodd" d="M60.1443 22.5045V25.673H73.6371V22.1218H68.0655C67.0241 22.1218 66.56 22.4487 65.8352 23.0488C65.7152 23.1482 65.5391 23.1406 65.4289 23.0304C65.3039 22.9054 65.3129 22.7001 65.4484 22.5864L67.3402 21.0004L68.4304 19.9947C69.7536 18.8436 70.7742 17.8556 71.4921 17.0309C72.216 16.2061 72.7174 15.4526 72.9962 14.7702C73.2751 14.0879 73.4146 13.3996 73.4146 12.7054C73.4146 11.6136 73.1327 10.6554 72.569 9.8306C72.0113 8.99991 71.2221 8.35317 70.2016 7.89035C69.181 7.42754 67.9795 7.19614 66.597 7.19614C65.256 7.19614 64.0782 7.44238 63.0636 7.93485C62.0549 8.4214 61.2717 9.11562 60.7139 10.0175C60.1562 10.9194 59.8773 11.9904 59.8773 13.2305H64.0515C64.0515 12.6787 64.1554 12.2099 64.363 11.8243C64.5766 11.4386 64.8733 11.1449 65.253 10.9431C65.6328 10.7355 66.0748 10.6316 66.5792 10.6316C67.0776 10.6316 67.5196 10.7295 67.9053 10.9253C68.291 11.1211 68.5936 11.4 68.8131 11.762C69.0327 12.118 69.1424 12.5481 69.1424 13.0525C69.1424 13.5034 69.0505 13.9217 68.8665 14.3074C68.6826 14.6872 68.4156 15.0669 68.0655 15.4466C67.7154 15.8204 67.2912 16.2328 66.7928 16.6838L60.1443 22.5045ZM132.338 12.0021V15.2062H129.873V21.374C129.873 21.641 129.914 21.8576 129.997 22.0237C130.184 22.3592 130.619 22.5128 130.987 22.5128C131.14 22.5128 131.699 22.5128 132.587 22.3708V25.477C132.38 25.5363 132.086 25.6105 131.706 25.6995C131.332 25.7885 130.884 25.8449 130.362 25.8686C129.342 25.9161 128.466 25.7974 127.737 25.5126C127.013 25.2219 126.458 24.7709 126.072 24.1598C125.693 23.5486 125.509 22.7802 125.52 21.8546V15.2062H123.582V12.0021H125.52V8.7268H129.873V12.0021H132.338ZM148.014 25.6732V12.0024H152.242V12.3523C152.242 12.9393 152.087 13.5158 151.792 14.0234L151.587 14.3769C151.531 14.4722 151.547 14.5928 151.625 14.6708C151.757 14.8025 151.987 14.7445 152.06 14.5732C152.408 13.7563 153.119 12.8603 153.604 12.483C154.167 12.038 154.823 11.8155 155.571 11.8155C155.773 11.8155 155.98 11.8304 156.194 11.86C156.407 11.8838 156.606 11.9223 156.79 11.9757V15.7583C156.582 15.6871 156.309 15.6308 155.971 15.5892C155.639 15.5477 155.342 15.5269 155.081 15.5269C154.565 15.5269 154.099 15.6426 153.684 15.874C153.275 16.0995 152.951 16.4169 152.714 16.8263C152.482 17.2298 152.367 17.7045 152.367 18.2504V25.6732H148.014ZM159.539 25.0857C160.578 25.6494 161.812 25.9312 163.242 25.9312C164.435 25.9312 165.485 25.7502 166.393 25.3883C167.3 25.0204 168.033 24.5072 168.591 23.8486C169.155 23.184 169.52 22.4038 169.686 21.5078L165.69 21.3921C165.577 21.6947 165.408 21.9499 165.182 22.1575C164.957 22.3652 164.687 22.5224 164.372 22.6292C164.058 22.736 163.708 22.7894 163.322 22.7894C162.764 22.7894 162.284 22.6737 161.88 22.4423C161.477 22.2109 161.165 21.8876 160.946 21.4722C160.726 21.0509 160.616 20.5614 160.616 20.0037V19.888H169.73V18.8021C169.73 17.6807 169.567 16.6869 169.241 15.8206C168.914 14.9483 168.457 14.2156 167.87 13.6222C167.283 13.0289 166.585 12.5809 165.779 12.2783C164.972 11.9757 164.082 11.8244 163.108 11.8244C161.732 11.8244 160.536 12.121 159.522 12.7144C158.507 13.3018 157.721 14.1266 157.163 15.1887C156.605 16.2448 156.326 17.479 156.326 18.8911C156.326 20.3448 156.602 21.5998 157.154 22.6559C157.712 23.7062 158.507 24.5161 159.539 25.0857ZM160.619 17.3603C160.641 16.9203 160.758 16.5257 160.972 16.1766C161.198 15.8028 161.503 15.5091 161.889 15.2955C162.275 15.0759 162.711 14.9662 163.197 14.9662C163.678 14.9662 164.102 15.07 164.47 15.2777C164.844 15.4794 165.138 15.7612 165.351 16.1232C165.565 16.4851 165.675 16.8975 165.681 17.3603H160.619ZM178.692 16.2834L182.688 16.1766C182.575 14.8237 181.985 13.7617 180.917 12.9903C179.849 12.213 178.389 11.8244 176.538 11.8244C175.304 11.8244 174.233 11.9964 173.325 12.3406C172.417 12.6847 171.717 13.1831 171.224 13.8358C170.732 14.4826 170.489 15.2628 170.495 16.1766C170.489 17.2209 170.821 18.0812 171.491 18.7576C172.162 19.4281 173.183 19.888 174.553 20.1372L176.938 20.5911C177.508 20.6979 177.926 20.8462 178.193 21.0361C178.46 21.22 178.597 21.4663 178.603 21.7748C178.597 22.119 178.419 22.3949 178.069 22.6025C177.719 22.8102 177.265 22.914 176.707 22.914C176.09 22.914 175.583 22.7835 175.185 22.5224C174.788 22.2614 174.541 21.8816 174.446 21.3832L170.148 21.49C170.308 22.8428 170.949 23.9227 172.07 24.7297C173.197 25.5307 174.737 25.9312 176.689 25.9312C177.911 25.9312 178.997 25.7414 179.947 25.3616C180.896 24.9759 181.644 24.436 182.19 23.7418C182.741 23.0475 183.02 22.2317 183.026 21.2942C183.02 20.2974 182.682 19.4964 182.012 18.8911C181.347 18.2859 180.332 17.8528 178.968 17.5917L176.333 17.0933C175.758 16.9746 175.357 16.8174 175.132 16.6216C174.912 16.4258 174.805 16.1944 174.811 15.9274C174.805 15.5832 174.977 15.3103 175.327 15.1086C175.683 14.9068 176.114 14.8059 176.618 14.8059C177.004 14.8059 177.342 14.8712 177.633 15.0018C177.929 15.1264 178.17 15.3014 178.354 15.5269C178.537 15.7464 178.65 15.9986 178.692 16.2834ZM142.188 12.0022V19.7721C142.188 20.3002 142.084 20.7511 141.877 21.1249C141.675 21.4928 141.399 21.7747 141.049 21.9705C140.705 22.1603 140.316 22.2553 139.883 22.2553C139.219 22.2553 138.693 22.0417 138.308 21.6145C137.922 21.1872 137.726 20.6028 137.72 19.8611V12.0022H133.368V20.7155C133.374 21.748 133.573 22.6498 133.964 23.4212C134.356 24.1866 134.905 24.7829 135.611 25.2101C136.317 25.6374 137.136 25.851 138.067 25.851C139.094 25.851 139.969 25.6077 140.693 25.1211C141.346 24.6803 142.167 23.495 142.548 22.6512C142.612 22.5104 142.788 22.4533 142.916 22.5391C143.016 22.6056 143.051 22.7358 142.998 22.8431L142.799 23.2437C142.526 23.7934 142.384 24.3987 142.384 25.0124V25.673H146.532V12.0022H142.188ZM114.377 25.6731V17.8765C114.383 17.3544 114.478 16.9094 114.662 16.5415C114.852 16.1736 115.119 15.8918 115.463 15.696C115.813 15.4942 116.216 15.3934 116.673 15.3934C117.361 15.3934 117.898 15.607 118.284 16.0342C118.676 16.4614 118.869 17.0547 118.863 17.8142V25.6731H123.215V16.9598C123.221 15.9333 123.025 15.0374 122.627 14.2719C122.236 13.5006 121.684 12.9013 120.972 12.4741C120.266 12.0409 119.432 11.8244 118.471 11.8244C117.462 11.8244 116.593 12.0647 115.863 12.5453C115.207 12.972 114.273 14.0264 113.871 14.8429C113.806 14.9749 113.638 15.0293 113.516 14.9477C113.412 14.8788 113.384 14.7395 113.452 14.6354L113.825 14.0615C114.046 13.7223 114.163 13.3262 114.163 12.9215V12.6873V12.0024H110.025V25.6731H114.377ZM102.316 25.9312C100.886 25.9312 99.6514 25.6494 98.6131 25.0857C97.5806 24.5161 96.7856 23.7062 96.2278 22.6559C95.676 21.5998 95.4001 20.3448 95.4001 18.8911C95.4001 17.479 95.679 16.2448 96.2367 15.1887C96.7945 14.1266 97.5806 13.3018 98.5953 12.7144C99.6099 12.121 100.805 11.8244 102.182 11.8244C103.155 11.8244 104.045 11.9757 104.852 12.2783C105.659 12.5809 106.356 13.0289 106.944 13.6222C107.531 14.2156 107.988 14.9483 108.314 15.8206C108.641 16.6869 108.804 17.6807 108.804 18.8021V19.888H99.69V20.0037C99.69 20.5614 99.7998 21.0509 100.019 21.4722C100.239 21.8876 100.55 22.2109 100.954 22.4423C101.357 22.6737 101.838 22.7894 102.396 22.7894C102.781 22.7894 103.131 22.736 103.446 22.6292C103.76 22.5224 104.03 22.3652 104.256 22.1575C104.481 21.9499 104.65 21.6947 104.763 21.3921L108.759 21.5078C108.593 22.4038 108.228 23.184 107.665 23.8486C107.107 24.5072 106.374 25.0204 105.466 25.3883C104.558 25.7502 103.508 25.9312 102.316 25.9312ZM99.6926 17.3603H104.754C104.748 16.8975 104.639 16.4851 104.425 16.1232C104.211 15.7612 103.918 15.4794 103.544 15.2777C103.176 15.07 102.752 14.9662 102.271 14.9662C101.785 14.9662 101.348 15.0759 100.963 15.2955C100.577 15.5091 100.271 15.8028 100.046 16.1766C99.832 16.5257 99.7142 16.9203 99.6926 17.3603ZM44.8328 25.673V7.44535H52.3624C53.7271 7.44535 54.9048 7.71235 55.8957 8.24637C56.8926 8.77445 57.6609 9.51316 58.2009 10.4625C58.7408 11.4059 59.0108 12.5036 59.0108 13.7556C59.0108 15.0135 58.7349 16.1142 58.1831 17.0576C57.6372 17.9951 56.857 18.7219 55.8423 19.2381C54.8277 19.7543 53.6232 20.0125 52.2288 20.0125H49.2384V25.673H44.8328ZM49.2384 16.5414H51.41C52.0746 16.5414 52.6294 16.4257 53.0744 16.1943C53.5253 15.9629 53.8665 15.6395 54.0979 15.2241C54.3293 14.8029 54.445 14.3133 54.445 13.7556C54.445 13.1919 54.3293 12.7054 54.0979 12.296C53.8665 11.8806 53.5253 11.5602 53.0744 11.3347C52.6234 11.1093 52.0686 10.9965 51.41 10.9965H49.2384V16.5414ZM86.3881 14.1205L84.3499 7.44535H79.4192L85.5693 25.673H91.4345L97.5846 7.44535H92.6538L90.6157 14.1205L89.5966 17.4581L89.0871 19.1269C88.9208 19.5769 88.8356 20.0529 88.8356 20.5328V21.2108C88.8356 21.4074 88.6763 21.5668 88.4796 21.5668C88.283 21.5668 88.1236 21.4074 88.1236 21.2108V20.4782C88.1236 20.0334 88.0579 19.5911 87.9285 19.1655L87.9167 19.1269L87.4072 17.4581L86.3881 14.1205Z" fill="#5200FF"/>
</svg>
